<?xml version="1.0" encoding="utf-8"?>
<!-- Generator: Adobe Illustrator 23.0.0, SVG Export Plug-In . SVG Version: 6.00 Build 0)  -->
<svg version="1.1" xmlns="http://www.w3.org/2000/svg" xmlns:xlink="http://www.w3.org/1999/xlink" x="0px" y="0px"
	 viewBox="0 0 500 500" style="enable-background:new 0 0 500 500;" xml:space="preserve">
<style type="text/css">
	.st0{fill:#FFFFFF;stroke:#000000;stroke-width:10;stroke-miterlimit:10;}
	.st1{opacity:0.2;}
	.st2{stroke:#000000;stroke-width:7;stroke-miterlimit:10;}
	.st3{fill:none;stroke:#000000;stroke-width:7;stroke-miterlimit:10;}
</style>
<g id="Trazo">
</g>
<g id="Color">
	<g>
		<path class="st0" d="M343.11,482.22H163.83c-8.28,0-15-6.72-15-15V268.9c0-10.97,8.89-19.86,19.86-19.86h169.57
			c10.97,0,19.86,8.89,19.86,19.86v198.32C358.11,475.5,351.39,482.22,343.11,482.22z"/>
		<circle class="st0" cx="253.47" cy="141.39" r="85.76"/>
		<polygon class="st1" points="285.73,65.07 262.12,224 308.78,208.2 333.59,170.98 342.37,120.15 318.77,87.1 		"/>
		<polyline class="st1" points="258.3,249.71 336.53,251.05 359.46,261.74 359.46,467.63 344.62,481.66 263.7,483 212.44,482.33 		
			"/>
		<path class="st2" d="M156.62,156.1h-10.5c-9.11,0-16.57-7.46-16.57-16.57v-18.95c0-9.11,7.46-16.57,16.57-16.57h10.5
			c6.6,0,12,5.4,12,12v28.1C168.62,150.7,163.22,156.1,156.62,156.1z"/>
		<path class="st2" d="M349.93,156.1h10.5c9.11,0,16.57-7.46,16.57-16.57v-18.95c0-9.11-7.46-16.57-16.57-16.57h-10.5
			c-6.6,0-12,5.4-12,12v28.1C337.93,150.7,343.33,156.1,349.93,156.1z"/>
		<path d="M332.64,142.43L270,168.03c-2.04,0.83-3.02,3.18-2.19,5.22l0.73,1.78c0.83,2.04,3.18,3.02,5.22,2.19l62.63-25.6
			c2.04-0.83,3.02-3.18,2.19-5.22l-0.73-1.78C337.02,142.58,334.67,141.6,332.64,142.43z"/>
		<path class="st3" d="M155.59,100.9c15.97-41.28,49.76-65.45,93.03-66.98c46.86-1.65,87.81,22.97,104.19,68.22"/>
		<path class="st3" d="M140.71,105.87c17.79-52.56,58.47-82.4,106.67-84.35c52.2-2.1,102.07,27.97,120.32,85.59"/>
	</g>
</g>
</svg>
