<?xml version="1.0" encoding="utf-8"?>
<!-- Generator: Adobe Illustrator 23.0.0, SVG Export Plug-In . SVG Version: 6.00 Build 0)  -->
<svg version="1.1" id="Trazo" xmlns="http://www.w3.org/2000/svg" xmlns:xlink="http://www.w3.org/1999/xlink" x="0px" y="0px"
	 viewBox="0 0 500 500" style="enable-background:new 0 0 500 500;" xml:space="preserve">
<style type="text/css">
	.st0{fill:#FFF7D2;}
	.st1{fill:#F61625;}
	.st2{fill:none;stroke:#000000;stroke-width:7;stroke-miterlimit:10;}
	.st3{fill:none;stroke:#000000;stroke-width:5;stroke-miterlimit:10;}
	.st4{fill:#89BBF7;}
	.st5{fill:none;stroke:#000000;stroke-width:10;stroke-miterlimit:10;}
</style>
<g>
	<polygon class="st0" points="143.91,447.26 145.26,252.19 156.57,238.53 186.1,240.89 301.18,243.42 360.58,246.79 368,273.96 
		363.28,454.01 329.53,457.38 146.61,456.71 	"/>
	<g>
		<path class="st1" d="M255.62,440.41l-43.91-56.86c0,0-24.42-35.9-23.88-41.29s0.54-33.44,5.93-38.29
			c5.39-4.85,6.93-15.79,14.25-18.41c7.32-2.62,18.1-11.79,22.96-12.87s16.18-4.31,18.88-3.24s3.78,22.11,3.78,22.11l-21.57,4.31
			l-7.4,13.25l-6.24,12.1l1.08,10.25l2.39,4.47c0,0,5.47,17.03,12.94,18.95c7.47,1.93,18.8,8.4,22.03,7.32
			C260.09,361.13,255.62,440.41,255.62,440.41"/>
		<path class="st1" d="M250.92,269.76l0.92,21.26l16.18,2.7l10.94,9.01c0,0,13.33,17.26,7.4,30.82
			c-5.93,13.56-11.94,21.65-19.72,24.35s-13.71,3.24-13.71,3.24l2.93,77.81l16.33-22.19l18.18-26.81l22.96-32.05
			c0,0,11.33-30.2,5.39-43.68c-5.93-13.48-11.33-26.96-23.19-32.9c-11.86-5.93-35.05-12.4-39.91-11.86"/>
		<path class="st2" d="M200.48,367.31c-28.83-35.89-7.84-89.88,37.75-96.25c5.01-0.7,10.27-1.07,15.78-1.07
			c4.92,0,9.57,0.32,13.97,0.94c43.11,6.06,64.89,55.39,40.91,91.74l-53.27,77.74L200.48,367.31z"/>
		<circle class="st3" cx="252.93" cy="325.54" r="34.51"/>
	</g>
	<polygon class="st4" points="83.33,449.96 83.33,209 153.36,209 242.46,209 257.98,209.67 257.98,242.74 194.37,244.43 
		157.75,247.98 145.26,248.82 142.56,406.09 146.61,456.71 	"/>
	<polygon class="st4" points="253.43,206.63 424.7,209 423.35,451.31 402.25,458.23 362.6,457.38 362.09,379.09 360.91,333.02 
		362.09,240.89 258.15,242.07 	"/>
	<path class="st5" d="M352.46,455.86H154.39c-6.6,0-12-5.4-12-12V255.25c0-6.6,5.4-12,12-12h198.06c6.6,0,12,5.4,12,12v188.61
		C364.46,450.46,359.06,455.86,352.46,455.86z"/>
	<polygon class="st4" points="29,198.37 252.24,33 475.32,201.57 469.58,207.82 34.91,207.82 	"/>
	<g>
		<path class="st5" d="M473.29,196.7L252.08,33.58L31.8,197.75c-4.43,3.47-1.96,10.58,3.67,10.55l434.27-0.99
			C475.39,207.28,477.78,200.11,473.29,196.7z"/>
		<path class="st5" d="M83.17,442.36c0,7.8,6.38,14.17,14.17,14.17h313.01c7.8,0,14.17-6.38,14.17-14.17V208.49H83.17V442.36z"/>
	</g>
</g>
</svg>
