<?xml version="1.0" encoding="utf-8"?>
<!-- Generator: Adobe Illustrator 23.0.0, SVG Export Plug-In . SVG Version: 6.00 Build 0)  -->
<svg version="1.1" id="Trazo" xmlns="http://www.w3.org/2000/svg" xmlns:xlink="http://www.w3.org/1999/xlink" x="0px" y="0px"
	 viewBox="0 0 500 500" style="enable-background:new 0 0 500 500;" xml:space="preserve">
<style type="text/css">
	.st0{fill:#F2EBEB;stroke:#000000;stroke-width:10;stroke-miterlimit:10;}
	.st1{fill:#DDDDDD;stroke:#000000;stroke-width:10;stroke-miterlimit:10;}
	.st2{fill:#F9EEC0;stroke:#000000;stroke-width:10;stroke-miterlimit:10;}
	.st3{opacity:0.2;}
</style>
<g>
	<path class="st0" d="M452.36,394H52.64C41.24,394,32,384.76,32,373.36V126.64c0-11.4,9.24-20.64,20.64-20.64h399.71
		c11.4,0,20.64,9.24,20.64,20.64v246.71C473,384.76,463.76,394,452.36,394z"/>
	<polyline class="st1" points="466,389 250,113 38,390 	"/>
	<path class="st2" d="M45.17,109.29h412.92c4.27,0,6.24,5.47,5.91,5.71L256,271L40.45,111.45
		C39.52,110.76,44.02,109.29,45.17,109.29z"/>
	<polyline class="st3" points="433,392 186.86,218.86 164.57,202.86 448,107 469,115 469,388 	"/>
</g>
</svg>
