<?xml version="1.0" encoding="utf-8"?>
<!-- Generator: Adobe Illustrator 23.0.0, SVG Export Plug-In . SVG Version: 6.00 Build 0)  -->
<svg version="1.1" id="Trazo" xmlns="http://www.w3.org/2000/svg" xmlns:xlink="http://www.w3.org/1999/xlink" x="0px" y="0px"
	 viewBox="0 0 500 500" style="enable-background:new 0 0 500 500;" xml:space="preserve">
<style type="text/css">
	.st0{fill:#7BB5EF;stroke:#000000;stroke-width:10;stroke-miterlimit:10;}
	.st1{fill:#FFFFFF;stroke:#000000;stroke-width:10;stroke-miterlimit:10;}
	.st2{fill:#F61625;stroke:#000000;stroke-width:8;stroke-miterlimit:10;}
	.st3{fill:#BABABA;stroke:#000000;stroke-width:10;stroke-miterlimit:10;}
</style>
<g>
	<path class="st0" d="M456,460H48c-6.6,0-12-5.4-12-12V186c0-6.6,5.4-12,12-12h408c6.6,0,12,5.4,12,12v262
		C468,454.6,462.6,460,456,460z"/>
	<path class="st1" d="M333,460H164c-6.6,0-12-5.4-12-12V99c0-6.6,5.4-12,12-12h169c6.6,0,12,5.4,12,12v349
		C345,454.6,339.6,460,333,460z"/>
	<path class="st2" d="M287.35,135.72H265.5v-21.84c0-2.94-2.41-5.35-5.35-5.35h-22.67c-2.94,0-5.35,2.41-5.35,5.35v21.84h-22.35
		c-2.94,0-5.35,2.41-5.35,5.35v21.4c0,2.94,2.41,5.35,5.35,5.35h22.35v23.63c0,2.94,2.41,5.35,5.35,5.35h22.67
		c2.94,0,5.35-2.41,5.35-5.35v-23.63h21.84c2.94,0,5.35-2.41,5.35-5.35v-21.4C292.69,138.13,290.29,135.72,287.35,135.72z"/>
	<path class="st1" d="M117,268H72c-6.6,0-12-5.4-12-12v-45c0-6.6,5.4-12,12-12h45c6.6,0,12,5.4,12,12v45
		C129,262.6,123.6,268,117,268z"/>
	<path class="st1" d="M428,268h-45c-6.6,0-12-5.4-12-12v-45c0-6.6,5.4-12,12-12h45c6.6,0,12,5.4,12,12v45
		C440,262.6,434.6,268,428,268z"/>
	<path class="st1" d="M428,355h-45c-6.6,0-12-5.4-12-12v-45c0-6.6,5.4-12,12-12h45c6.6,0,12,5.4,12,12v45
		C440,349.6,434.6,355,428,355z"/>
	<path class="st1" d="M117,356H72c-6.6,0-12-5.4-12-12v-45c0-6.6,5.4-12,12-12h45c6.6,0,12,5.4,12,12v45
		C129,350.6,123.6,356,117,356z"/>
	<line class="st1" x1="95" y1="268" x2="95" y2="201"/>
	<line class="st1" x1="95" y1="355" x2="95" y2="288"/>
	<line class="st1" x1="405" y1="355" x2="405" y2="288"/>
	<line class="st1" x1="405" y1="268" x2="405" y2="201"/>
	<path class="st3" d="M275,458h-54c-6.6,0-12-5.4-12-12v-90c0-6.6,5.4-12,12-12h54c6.6,0,12,5.4,12,12v90
		C287,452.6,281.6,458,275,458z"/>
	<line class="st0" x1="247.86" y1="344.14" x2="247.86" y2="457.86"/>
	<path class="st3" d="M187.86,33h120.29c1.57,0,2.86,1.29,2.86,2.86v45.5c0,3.1-2.54,5.64-5.64,5.64H190.64
		c-3.1,0-5.64-2.54-5.64-5.64v-45.5C185,34.29,186.29,33,187.86,33z"/>
</g>
</svg>
