<?xml version="1.0" encoding="utf-8"?>
<!-- Generator: Adobe Illustrator 23.0.0, SVG Export Plug-In . SVG Version: 6.00 Build 0)  -->
<svg version="1.1" id="Capa_1" xmlns="http://www.w3.org/2000/svg" xmlns:xlink="http://www.w3.org/1999/xlink" x="0px" y="0px"
	 viewBox="0 0 500 500" style="enable-background:new 0 0 500 500;" xml:space="preserve">
<style type="text/css">
	.st0{fill:#515151;stroke:#3D3D3D;stroke-width:5;stroke-miterlimit:10;}
	.st1{fill:#D31C29;stroke:#3D3D3D;stroke-miterlimit:10;}
	.st2{fill:#D31C29;stroke:#C41A2F;stroke-width:4;stroke-miterlimit:10;}
	.st3{fill:#2483E2;stroke:#2481CE;stroke-width:4;stroke-miterlimit:10;}
	.st4{opacity:0.7;fill:#FFFFFF;stroke:#FFFFFF;stroke-width:5;stroke-miterlimit:10;}
	.st5{opacity:0.3;fill:#111111;stroke:#282828;stroke-width:4;stroke-miterlimit:10;}
	.st6{fill:#424242;stroke:#303030;stroke-width:5;stroke-miterlimit:10;}
	.st7{fill:#424242;}
	.st8{fill:#2483E2;}
	.st9{fill:#D31C29;}
	.st10{fill:#FFFFFF;stroke:#000000;stroke-width:5;stroke-miterlimit:10;}
</style>
<path class="st0" d="M99.01,431.58h288c0,0,7-59-65-59c-60,0-171,0-171,0S99.01,374.58,99.01,431.58z"/>
<path class="st1" d="M234.51,130.58"/>
<path class="st1" d="M234.51,392.58"/>
<path class="st2" d="M287.08,108.08h-88.14c-25.37,0-45.93,20.56-45.93,45.93l-7,202.07h194l-7-202.07
	C333.01,128.64,312.45,108.08,287.08,108.08z"/>
<path class="st3" d="M246.96,356.08h97l-7-202.07c0-25.37-20.56-45.93-45.93-45.93h-44.07V356.08z"/>
<path class="st4" d="M329.52,158.5c0.14-1.31,0.22-2.65,0.22-4c0-18.18-13.06-33.29-30.31-36.5v40.5H329.52z"/>
<path class="st5" d="M154.13,156.18l-8.12,199.9h40.92V111.5l-6.95,2.28C169.81,118.27,154.13,131.09,154.13,156.18z"/>
<path class="st6" d="M186.51,372.58c-23.92,0-41.11,0-41.11,0s-46.39,2-46.39,59h87.5V372.58z"/>
<rect x="165.58" y="375.13" class="st7" width="23.29" height="53.89"/>
<path class="st8" d="M373.16,71.29L373.16,71.29c-1.33-1.95-4.01-2.46-5.95-1.13l-39.14,26.66c-1.95,1.33-2.46,4.01-1.13,5.95v0
	c1.33,1.95,4.01,2.46,5.95,1.13l39.14-26.66C373.98,75.92,374.49,73.24,373.16,71.29z"/>
<path class="st9" d="M114.74,73.08L114.74,73.08c1.33-1.95,4.01-2.46,5.95-1.13l39.14,26.66c1.95,1.33,2.46,4.01,1.13,5.95v0
	c-1.33,1.95-4.01,2.46-5.95,1.13l-39.14-26.66C113.92,77.71,113.41,75.03,114.74,73.08z"/>
<path class="st8" d="M408.56,140.83L408.56,140.83c-0.84-2.2-3.32-3.32-5.53-2.49l-44.27,16.81c-2.2,0.84-3.32,3.32-2.49,5.53l0,0
	c0.84,2.2,3.32,3.32,5.53,2.49l44.27-16.81C408.27,145.52,409.39,143.03,408.56,140.83z"/>
<path class="st9" d="M83.19,139.83L83.19,139.83c0.84-2.2,3.32-3.32,5.53-2.49L133,154.16c2.2,0.84,3.32,3.32,2.49,5.53v0
	c-0.84,2.2-3.32,3.32-5.53,2.49l-44.27-16.81C83.48,144.52,82.36,142.03,83.19,139.83z"/>
<path class="st8" d="M416.39,222.4L416.39,222.4c-0.32-2.34-2.49-3.99-4.82-3.67l-46.92,6.39c-2.34,0.32-3.99,2.49-3.67,4.82v0
	c0.32,2.34,2.49,3.99,4.82,3.67l46.92-6.39C415.06,226.91,416.71,224.74,416.39,222.4z"/>
<path class="st9" d="M74.01,222.4L74.01,222.4c0.32-2.34,2.49-3.99,4.82-3.67l46.92,6.39c2.34,0.32,3.99,2.49,3.67,4.82v0
	c-0.32,2.34-2.49,3.99-4.82,3.67l-46.92-6.39C75.35,226.91,73.69,224.74,74.01,222.4z"/>
<path class="st10" d="M432.06,305.81l-164.18-89.43l22.34,184.33c0.1,0.72,1.17,0.69,1.56,0.08l38.64-52.19
	c0.48-0.75,1.57-0.77,2.07-0.03l54.51,83.01l34.04-23l-54.48-82.97c-0.5-0.74-0.08-1.75,0.8-1.91l63.11-16.63
	C431.18,306.93,432.69,306.17,432.06,305.81z"/>
</svg>
