<?xml version="1.0" encoding="utf-8"?>
<!-- Generator: Adobe Illustrator 23.0.0, SVG Export Plug-In . SVG Version: 6.00 Build 0)  -->
<svg version="1.1" id="Trazo" xmlns="http://www.w3.org/2000/svg" xmlns:xlink="http://www.w3.org/1999/xlink" x="0px" y="0px"
	 viewBox="0 0 500 500" style="enable-background:new 0 0 500 500;" xml:space="preserve">
<style type="text/css">
	.st0{fill:#FFFFFF;stroke:#000000;stroke-width:10;stroke-miterlimit:10;}
	.st1{opacity:0.2;}
</style>
<g>
	<path class="st0" d="M300,464H197c-8.28,0-15-6.72-15-15V184.86c0-10.97,8.89-19.86,19.86-19.86h93.29
		c10.97,0,19.86,8.89,19.86,19.86V449C315,457.28,308.28,464,300,464z"/>
	<circle class="st0" cx="248.5" cy="91.5" r="54.5"/>
	<path class="st0" d="M423,407h-66c-8.28,0-15-6.72-15-15V211.04c0-10.97,8.89-19.86,19.86-19.86h56.29
		c10.97,0,19.86,8.89,19.86,19.86V392C438,400.28,431.28,407,423,407z"/>
	<circle class="st0" cx="390" cy="138.13" r="39.34"/>
	<path class="st0" d="M142,407H76c-8.28,0-15-6.72-15-15V211.04c0-10.97,8.89-19.86,19.86-19.86h56.29
		c10.97,0,19.86,8.89,19.86,19.86V392C157,400.28,150.28,407,142,407z"/>
	<circle class="st0" cx="109" cy="138.13" r="39.34"/>
	<polygon class="st1" points="269,43 254,144 292.71,123.86 305,78 290,57 	"/>
	<polygon class="st1" points="373.71,105.69 398,179 357.43,161.18 349,129.71 359.29,115.29 	"/>
	<polygon class="st1" points="124.29,106.69 99,178 140.57,162.18 149,130.71 138.71,116.29 	"/>
	<polyline class="st1" points="251.57,165.86 301.29,167.57 315.86,181.29 315.86,445.29 306.43,463.29 255,465 222.43,464.14 	"/>
	<polyline class="st1" points="402,190 355.94,193.75 343,203.58 343,392.87 351.38,405.77 397.06,407 433,402 439,316 	"/>
	<polyline class="st1" points="95,194 142,195 155,208.58 155,397.87 146.62,410.77 100.94,412 65,407 59,321 	"/>
</g>
</svg>
