<?xml version="1.0" encoding="utf-8"?>
<!-- Generator: Adobe Illustrator 23.0.0, SVG Export Plug-In . SVG Version: 6.00 Build 0)  -->
<svg version="1.1" id="Trazo" xmlns="http://www.w3.org/2000/svg" xmlns:xlink="http://www.w3.org/1999/xlink" x="0px" y="0px"
	 viewBox="0 0 500 500" style="enable-background:new 0 0 500 500;" xml:space="preserve">
<style type="text/css">
	.st0{fill:#FFCD35;}
	.st1{fill:#E5B130;}
	.st2{fill:#B2B2B2;}
	.st3{fill:none;stroke:#000000;stroke-width:10;stroke-miterlimit:10;}
	.st4{fill:none;stroke:#000000;stroke-width:7;stroke-miterlimit:10;}
	.st5{fill:#FFFFFF;stroke:#000000;stroke-width:10;stroke-miterlimit:10;}
	.st6{stroke:#000000;stroke-width:10;stroke-miterlimit:10;}
	.st7{stroke:#000000;stroke-width:3;stroke-miterlimit:10;}
</style>
<g>
	<g>
		<polyline class="st0" points="131.5,145.64 131.5,120.5 144.5,110.5 180.36,111.36 258.5,113.5 350.07,109.64 371.5,114.79 
			370.5,155.5 374.07,263.07 370.64,280.21 295.21,280.21 131.5,280.21 132.36,149.07 		"/>
		<polygon class="st1" points="284.5,278.5 344.93,111.36 369.5,112.5 374.5,125.5 371.07,278.5 		"/>
		<polyline class="st2" points="220.5,194.5 228.36,173.07 243.79,164.5 264.36,165.36 278.07,175.64 284.5,190.5 282.36,208.21 
			268.64,222.79 263.5,231.5 262.64,262.21 260.5,272.5 245.5,269.07 239.5,251.5 242.07,236.5 241.5,224.5 227.5,214.21 
			220.5,194.5 		"/>
		<path class="st2" d="M192.5,109.5l-26-1l2-27l21-27l34-21l26-5l36,9.43c0,0,14.14,2.86,24.57,13.71
			C320.5,62.5,339.5,96.5,339.5,107.5c0,2-28.86,2.43-28.86,2.43l-4.57-23.43c0,0-18.29-34-47.43-32s-54.14,12-58.14,26
			S192.5,109.5,192.5,109.5"/>
		<g>
			<g>
				<path class="st3" d="M359.54,110.13H144.54c-7.13,0-12.96,4.55-12.96,10.1V300.4c0,5.56,5.83,10.1,12.96,10.1h215.01
					c7.13,0,12.96-4.55,12.96-10.1V120.23C372.5,114.68,366.67,110.13,359.54,110.13z"/>
				<path class="st3" d="M336.42,109.23c0.04-0.9,0.08-1.8,0.08-2.71c0-41.98-37.61-76.01-84-76.01s-84,34.03-84,76.01
					c0,0.91,0.04,1.81,0.08,2.71H336.42z"/>
			</g>
			<path class="st4" d="M285.5,194.28c0-17.95-14.55-32.5-32.5-32.5s-32.5,14.55-32.5,32.5c0,14.01,8.86,25.94,21.28,30.51v34.37
				c0,6.23,5.1,11.33,11.33,11.33s11.33-5.1,11.33-11.33V224.7C276.75,220.07,285.5,208.2,285.5,194.28z"/>
			<path class="st3" d="M312.5,109.5c-2.09-31.27-28.1-56-59.91-56s-57.82,24.73-59.91,56H312.5z"/>
		</g>
	</g>
	<g>
		<path class="st5" d="M461.5,434.5h-419c-6.6,0-12-5.4-12-12v-130c0-6.6,5.4-12,12-12h419c6.6,0,12,5.4,12,12v130
			C473.5,429.1,468.1,434.5,461.5,434.5z"/>
		<circle class="st6" cx="128.5" cy="356.5" r="18"/>
		<circle class="st6" cx="186.5" cy="356.5" r="18"/>
		<circle class="st6" cx="246.5" cy="356.5" r="18"/>
		<circle class="st6" cx="305.5" cy="356.5" r="18"/>
		<circle class="st6" cx="364.5" cy="356.5" r="18"/>
		<line class="st7" x1="399.5" y1="308.5" x2="399.5" y2="405.5"/>
	</g>
</g>
</svg>
