<?xml version="1.0" encoding="utf-8"?>
<!-- Generator: Adobe Illustrator 23.0.0, SVG Export Plug-In . SVG Version: 6.00 Build 0)  -->
<svg version="1.1" xmlns="http://www.w3.org/2000/svg" xmlns:xlink="http://www.w3.org/1999/xlink" x="0px" y="0px"
	 viewBox="0 0 500 500" style="enable-background:new 0 0 500 500;" xml:space="preserve">
<style type="text/css">
	.st0{fill:#B8D3F7;}
	.st1{fill:#A3BBD6;}
	.st2{fill:none;stroke:#000000;stroke-width:10;stroke-miterlimit:10;}
</style>
<g id="Color_1_">
	<polygon class="st0" points="56.71,85.86 107.57,79.57 133.86,95.57 130.43,143.57 128.71,159.57 101.29,163 60.71,159 52.14,147 	
		"/>
	<polygon class="st0" points="53.86,213.29 73.29,207 97.86,207 117.29,208.71 129.29,215 133.86,227.57 133.29,264.71 
		130.43,284.71 108.71,288.14 75.57,288.14 56.71,284.14 52.57,270.36 	"/>
	<polygon class="st0" points="63,333.86 88.71,332.71 123,333.86 132.71,344.71 133.29,364.71 132.14,404.71 118.43,415 83,415.57 
		56.71,412.71 51.86,396.64 52.71,343 	"/>
	<polyline class="st0" points="452.71,153.29 456.14,128.71 453.86,96.71 444.71,83 173.21,82.14 160.14,87.57 156.14,92.14 	"/>
	<polyline class="st0" points="452.14,279 455.57,254.43 453.29,222.43 444.14,208.71 172.64,207.86 159.57,213.29 155.57,217.86 	
		"/>
	<polyline class="st0" points="453.29,403 456.71,378.43 454.43,346.43 445.29,332.71 173.79,331.86 160.71,337.29 156.71,341.86 	
		"/>
	<polyline class="st1" points="136.71,150.43 101.29,163 57.86,157.86 50.71,101.86 52.71,92.71 	"/>
	<polyline class="st1" points="135.57,276.14 100.14,288.71 56.71,283.57 49.57,227.57 51.57,218.43 	"/>
	<polyline class="st1" points="135.57,401.86 100.14,414.43 56.71,409.29 49.57,353.29 51.57,344.14 	"/>
	<polyline class="st0" points="156.43,88.71 154.71,123 158.14,148.71 176.14,161.57 235.29,165 338.14,165 410.14,162.43 
		447,159.86 454.71,139.29 	"/>
	<polyline class="st0" points="163.29,213 154.71,235.29 153,259.29 161.57,284.14 190.71,289.29 266.14,291 352.71,288.43 
		414.43,290.14 449.57,286.71 452.14,271.29 	"/>
	<polyline class="st0" points="164.14,339 155.43,351.07 158.14,378.43 159.86,408.43 236.14,415.29 345.86,411.86 419.57,414.43 
		450.43,408.43 453.86,388.71 	"/>
	<polyline class="st1" points="158.43,87.57 154.43,94.43 155,135.57 160.71,158.43 177.86,163.57 250.43,162.43 286.43,161.86 	"/>
	<polyline class="st1" points="161,215.29 157,222.14 157.57,263.29 163.29,286.14 180.43,291.29 253,290.14 289,289.57 	"/>
	<polyline class="st1" points="159.29,337 155.29,343.86 155.86,385 161.57,407.86 178.71,413 251.29,411.86 287.29,411.29 	"/>
</g>
<g id="Trazo">
	<path class="st2" d="M115.21,161.86H69.64c-9.43,0-17.07-7.64-17.07-17.07V99.21c0-9.43,7.64-17.07,17.07-17.07h45.57
		c9.43,0,17.07,7.64,17.07,17.07v45.57C132.29,154.21,124.64,161.86,115.21,161.86z"/>
	<path class="st2" d="M115.21,287.43H69.64c-9.43,0-17.07-7.64-17.07-17.07v-45.57c0-9.43,7.64-17.07,17.07-17.07h45.57
		c9.43,0,17.07,7.64,17.07,17.07v45.57C132.29,279.79,124.64,287.43,115.21,287.43z"/>
	<path class="st2" d="M115.21,413.71H68.93c-9.43,0-17.07-7.64-17.07-17.07v-46.29c0-9.43,7.64-17.07,17.07-17.07h46.29
		c9.43,0,17.07,7.64,17.07,17.07v46.29C132.29,406.07,124.64,413.71,115.21,413.71z"/>
	<path class="st2" d="M437.64,161.86H173.21c-9.82,0-17.79-7.96-17.79-17.79V99.93c0-9.82,7.96-17.79,17.79-17.79h264.43
		c9.82,0,17.79,7.96,17.79,17.79v44.14C455.43,153.89,447.47,161.86,437.64,161.86z"/>
	<path class="st2" d="M437.64,288.71H173.21c-9.82,0-17.79-7.96-17.79-17.79v-44.14c0-9.82,7.96-17.79,17.79-17.79h264.43
		c9.82,0,17.79,7.96,17.79,17.79v44.14C455.43,280.75,447.47,288.71,437.64,288.71z"/>
	<path class="st2" d="M437.64,413H173.21c-9.82,0-17.79-7.96-17.79-17.79v-44.14c0-9.82,7.96-17.79,17.79-17.79h264.43
		c9.82,0,17.79,7.96,17.79,17.79v44.14C455.43,405.04,447.47,413,437.64,413z"/>
</g>
</svg>
