<?xml version="1.0" encoding="utf-8"?>
<!-- Generator: Adobe Illustrator 23.0.0, SVG Export Plug-In . SVG Version: 6.00 Build 0)  -->
<svg version="1.1" id="Capa_1" xmlns="http://www.w3.org/2000/svg" xmlns:xlink="http://www.w3.org/1999/xlink" x="0px" y="0px"
	 viewBox="0 0 500 344.86" style="enable-background:new 0 0 500 344.86;" xml:space="preserve">
<style type="text/css">
	.st0{fill:#FFFFFF;stroke:#000000;stroke-width:10;stroke-miterlimit:10;}
	.st1{opacity:0.26;fill:#A3A3A3;}
	.st2{fill:#C4C4C4;stroke:#000000;stroke-width:7;stroke-miterlimit:10;}
	.st3{fill:#A4D6FF;stroke:#000000;stroke-width:8;stroke-miterlimit:10;}
	.st4{fill:#7C7B84;stroke:#000000;stroke-width:7;stroke-miterlimit:10;}
	.st5{fill:#F61625;stroke:#000000;stroke-width:8;stroke-miterlimit:10;}
	.st6{fill:#5C5C60;stroke:#000000;stroke-width:7;stroke-miterlimit:10;}
	.st7{opacity:0.28;fill:#494949;}
	.st8{fill:#EFD567;stroke:#000000;stroke-width:6;stroke-miterlimit:10;}
	.st9{opacity:0.61;fill:#8AB7D6;}
</style>
<g>
	<path class="st0" d="M471.61,157.78l-22.3-4.78c-1.02-0.22-1.89-0.85-2.42-1.75l-30.71-52.64c-4.91-6.78-13.63-10.92-23.02-10.92
		h-61.34V69.07c0-6.24-6.22-11.34-13.83-11.34H39.47c-7.61,0-13.83,5.1-13.83,11.34v194.35c0,6.24,6.22,11.34,13.83,11.34H318
		c1.42,0,2.79-0.18,4.08-0.51c1.55,0.49,3.22,0.78,4.98,0.78h131.69c7.61,0,22.55-6.38,22.55-12.61v-84.22
		c0-6.04,2.24-13.17-7.58-19.56C473.08,158.21,472.36,157.94,471.61,157.78z"/>
	<polyline class="st1" points="27.62,244.73 184.33,59.71 30.91,59.05 27.62,248.02 	"/>
	<path class="st2" d="M477.86,276.34H28.43c-6.6,0-12-5.4-12-12v-6.62c0-6.6,5.4-12,12-12h449.43c6.6,0,12,5.4,12,12v6.62
		C489.86,270.94,484.46,276.34,477.86,276.34z"/>
	<path class="st3" d="M354.13,116.13v38.09c0,2.8,2.56,5.06,5.72,5.06l54.69-0.39c4.01,0,5.39-2.12,3.95-5.43l-16.68-39.05
		c-0.85-1.95-2.96-3.24-5.33-3.25l-36.61-0.09C356.71,111.06,354.13,113.33,354.13,116.13z"/>
	<line class="st4" x1="330.18" y1="89.34" x2="330.18" y2="246.38"/>
	<path class="st5" d="M139.35,111.72H117.5V89.88c0-2.94-2.41-5.35-5.35-5.35H89.48c-2.94,0-5.35,2.41-5.35,5.35v21.84H61.78
		c-2.94,0-5.35,2.41-5.35,5.35v21.4c0,2.94,2.41,5.35,5.35,5.35h22.35v23.63c0,2.94,2.41,5.35,5.35,5.35h22.67
		c2.94,0,5.35-2.41,5.35-5.35v-23.63h21.84c2.94,0,5.35-2.41,5.35-5.35v-21.4C144.69,114.13,142.29,111.72,139.35,111.72z"/>
	<path class="st3" d="M294.15,159.13h-91.23c-6.6,0-12-5.4-12-12v-40.53c0-6.6,5.4-12,12-12h91.23c6.6,0,12,5.4,12,12v40.53
		C306.15,153.73,300.75,159.13,294.15,159.13z"/>
	<circle class="st6" cx="110.27" cy="262.84" r="44.45"/>
	<circle class="st6" cx="412.82" cy="262.84" r="44.45"/>
	<circle cx="111.08" cy="261.36" r="8.4"/>
	<circle cx="413.81" cy="261.36" r="8.4"/>
	<path class="st7" d="M136.12,231.84c0,0-23.4-20.98-51.9,0.46c-12.7,9.56-15.02,25.14-13.3,36.9c1.21,8.29,4.8,14.31,6.47,16.6
		c4.06,5.55,8.42,10.07,13.11,12.34C92.57,299.14,136.12,231.84,136.12,231.84z"/>
	<path class="st7" d="M438.35,231.84c0,0-23.4-20.98-51.9,0.46c-12.7,9.56-15.02,25.14-13.3,36.9c1.21,8.29,4.8,14.31,6.47,16.6
		c4.06,5.55,8.42,10.07,13.11,12.34C394.8,299.14,438.35,231.84,438.35,231.84z"/>
	<path class="st8" d="M452.54,155.18c-2.79-0.08-5.08,2.44-5.03,5.23l0.25,18.11c0.04,2.19,0.48,3.5,3.17,4.65
		c0.58,0.25,1.22,0.38,1.86,0.38l20.78,0.09c3.17,0.01,5.74-2.57,5.72-5.74l-0.07-8.16c-0.03-3.49-1.96-6.68-5.01-8.36
		c-3.62-2-9.03-4.4-15.61-5.54C456.12,155.41,454.13,155.23,452.54,155.18z"/>
	<path class="st5" d="M350.96,79.1l4.77-21.86c0.89-1.62,2.6-2.63,4.45-2.63h10.94c1.77,0,3.41,0.92,4.33,2.43l6.34,21.64
		c1.41,2.31-0.25,5.27-2.95,5.27l-24.83,0.28C351.37,84.24,349.69,81.41,350.96,79.1z"/>
	<path class="st9" d="M211.98,154.51c0,0-5.1,0.29-8.67-0.12c-1.21-0.14-2.14-0.55-2.8-0.92c-1.16-0.66-1.85-1.27-2.59-2.04
		c-1.99-2.08-2.9-4.87-2.4-10.03c0-0.33,0.08-34.47,0.08-34.47s1.32-7.22,8.81-7.55c0.16,0,41.32,0,41.32,0L211.98,154.51z"/>
	<path class="st9" d="M358.68,154.13l0.08-37.89c0,0,0.33-0.49,2.03-0.4c-0.02,0,18.11,0.04,18.11,0.04l-11.66,38.55l-7.53,0.02
		C359.7,154.45,359.02,154.61,358.68,154.13z"/>
</g>
</svg>
