<?xml version="1.0" encoding="utf-8"?>
<!-- Generator: Adobe Illustrator 23.0.0, SVG Export Plug-In . SVG Version: 6.00 Build 0)  -->
<svg version="1.1" id="Trazo" xmlns="http://www.w3.org/2000/svg" xmlns:xlink="http://www.w3.org/1999/xlink" x="0px" y="0px"
	 viewBox="0 0 500 500" style="enable-background:new 0 0 500 500;" xml:space="preserve">
<style type="text/css">
	.st0{fill:#D63232;}
	.st1{fill:#BF3030;}
	.st2{fill:none;stroke:#000000;stroke-width:10;stroke-miterlimit:10;}
	.st3{fill:#FFFFFF;stroke:#000000;stroke-width:10;stroke-linecap:round;stroke-miterlimit:10;}
</style>
<g>
	<polygon class="st0" points="36.49,160.63 112.18,61.64 134.31,66.3 210.64,136.07 183.27,179.01 209.23,200.22 335.01,296.5 
		347.43,293.39 365.29,272.43 383.92,259.23 400.22,270.88 424.29,291.06 468.54,326.78 473.98,344.63 453.79,364.82 402.55,434.69 
		378.48,437.02 339.67,407.52 41.53,180.04 	"/>
	<polyline class="st1" points="80.91,104.47 127.49,247.33 33.43,170.79 80.91,104.47 	"/>
	<polygon class="st1" points="294.41,370.77 417.08,408.82 400.78,438.32 366.62,433.66 	"/>
	<path class="st2" d="M466.3,323.69l-76.19-57.89c-7.51-5.71-18.23-4.24-23.93,3.27l-25.95,34.16L181.5,182.64l25.95-34.16
		c5.71-7.51,4.24-18.23-3.27-23.93l-76.19-57.89c-7.51-5.71-18.23-4.24-23.93,3.27l-62.94,82.84c-8.04,10.58-5.98,25.68,4.6,33.72
		l76.97,58.48c0.59,0.59,1.21,1.16,1.89,1.68L370,433.11c0.68,0.52,1.4,0.96,2.12,1.37l0.78,0.59c10.58,8.04,25.68,5.98,33.72-4.6
		l62.94-82.84C475.27,340.12,473.81,329.4,466.3,323.69z"/>
	<path class="st3" d="M265.49,100.88c0,0,97.76-12.08,131.6,84.53"/>
	<path class="st3" d="M268.41,139.39c0,0,67.28-8.63,90.57,60.38"/>
	<path class="st3" d="M272.48,177.54c0,0,36.02-4.62,48.49,32.33"/>
</g>
</svg>
