<?xml version="1.0" encoding="utf-8"?>
<!-- Generator: Adobe Illustrator 23.0.0, SVG Export Plug-In . SVG Version: 6.00 Build 0)  -->
<svg version="1.1" id="Velocidad" xmlns="http://www.w3.org/2000/svg" xmlns:xlink="http://www.w3.org/1999/xlink" x="0px" y="0px"
	 viewBox="0 0 500 500" style="enable-background:new 0 0 500 500;" xml:space="preserve">
<style type="text/css">
	.st0{fill:#ACABB1;}
	.st1{fill:#CFCFD1;}
	.st2{fill:#EBE5DD;}
	.st3{fill:#E26060;}
	.st4{fill:none;stroke:#000000;stroke-width:10;stroke-miterlimit:10;}
	.st5{fill:#FFFFFF;stroke:#000000;stroke-width:10;stroke-miterlimit:10;}
	.st6{fill:#8C8B8E;}
</style>
<g>
	<path class="st0" d="M101.43,189.71c0,0,42.86-125,169.71-132.86S452,172.57,452,172.57S464.29,238,463.14,254S389,251,389,251
		s-0.14-32.14-11.57-53.57C366,176,349,149,305,137s-84.43,15-84.43,15s-28.86,23.14-37.71,44.57C174,218,170,248,172,259
		s-71,16-71,16s-11.86-42.29-6.43-50.14C100,217,101.43,189.71,101.43,189.71L101.43,189.71"/>
	<path class="st0" d="M98,284c0,0,43,149,184,145s180.71-143.29,182.86-168.14S385.29,245,385.14,248S385,303.57,343,324.29
		S287,363,214,327c-26-28-42-68-42-68l-78,11L98,284"/>
	<path class="st1" d="M340,366l24-13c0,0,26-23,29-31s19-35,21-47s7-43,6-55s1-24,1-24l13,14l3,42l-7,43c0,0-13,33-25,45
		s-40,39-51,38S340,366,340,366z"/>
	<polygon class="st2" points="181,221 232.86,223.71 237.43,248.29 211,255 179.71,251.14 	"/>
	<polyline class="st2" points="210.57,170 231,153 249.43,175.14 263,196 251.71,210.57 241.43,213.43 211.14,172.86 	"/>
	<polyline class="st2" points="294,193 313,165 325,152 341,166 346,178 313.43,214.57 292.29,202 294,193 	"/>
	<polyline class="st2" points="324,223 371.71,224.86 379,240 369,256 318,253.43 316,231 324,223 	"/>
	<polygon class="st2" points="312,267 332.29,291.71 343,315.71 326,330 308,317 290.57,288.29 294,277 	"/>
	<polygon class="st2" points="243,266 252.29,270 269,283 246,314 230,327.14 218,320 212.86,307.71 223,289 	"/>
	<polyline class="st2" points="252.86,210.29 274.57,200.29 298,206 315,230 317.43,249.14 292,249 295,232 275,220 262,229 
		262.29,242.57 240,245.71 243,220 252.86,210.29 	"/>
	<path class="st2" d="M240,249l15.14,21.86L278,277l23.14-8.71l11.43-18.57L294,246c0,0-16,6-14,7s-21-10-21-10l-17.86-2.14L240,249
		z"/>
	<path class="st3" d="M262.57,238.86c0,0,2.43-15.86,14.43-13.86s14,8,14,12s-2.86,15.57-12.43,15.29
		C269,252,262.14,240.71,262.57,238.86z"/>
	<circle class="st4" cx="279" cy="241" r="185"/>
	<circle class="st4" cx="279" cy="241" r="105"/>
	<circle class="st4" cx="277" cy="238" r="38"/>
	<path class="st4" d="M321.23,157.57l-26.98,35.13c-2.51,3.27-1.89,8,1.38,10.52l12.28,9.43c3.27,2.51,8,1.89,10.52-1.38
		l26.98-35.13c2.51-3.27,1.89-8-1.38-10.52l-12.28-9.43C328.47,153.68,323.74,154.3,321.23,157.57z"/>
	<path class="st4" d="M240.23,269.57l-26.98,35.13c-2.51,3.27-1.89,8,1.38,10.52l12.28,9.43c3.27,2.51,8,1.89,10.52-1.38
		l26.98-35.13c2.51-3.27,1.89-8-1.38-10.52l-12.28-9.43C247.47,265.68,242.74,266.3,240.23,269.57z"/>
	<path class="st4" d="M367.97,223.18h-44.3c-4.13,0-7.5,3.38-7.5,7.5l0,15.48c0,4.13,3.37,7.5,7.5,7.5h44.3c4.13,0,7.5-3.37,7.5-7.5
		v-15.48C375.47,226.56,372.1,223.18,367.97,223.18z"/>
	<path class="st4" d="M235.42,156.57l26.98,35.13c2.51,3.27,1.89,8-1.38,10.52l-12.28,9.43c-3.27,2.51-8,1.89-10.52-1.38
		l-26.98-35.13c-2.51-3.27-1.89-8,1.38-10.52l12.28-9.43C228.18,152.68,232.91,153.3,235.42,156.57z"/>
	<path class="st4" d="M315.42,271.57l26.98,35.13c2.51,3.27,1.89,8-1.38,10.52l-12.28,9.43c-3.27,2.51-8,1.89-10.52-1.38
		l-26.98-35.13c-2.51-3.27-1.89-8,1.38-10.52l12.28-9.43C308.18,267.68,312.91,268.3,315.42,271.57z"/>
	<path class="st4" d="M185.67,222.18h44.3c4.13,0,7.5,3.38,7.5,7.5v15.48c0,4.13-3.38,7.5-7.5,7.5h-44.3c-4.12,0-7.5-3.37-7.5-7.5
		v-15.48C178.17,225.56,181.55,222.18,185.67,222.18z"/>
	<circle class="st4" cx="277" cy="238" r="16"/>
	<g>
		<path class="st4" d="M434.14,214.44c5.83,37.07-0.27,72.48-14.8,101.33c-14.72,29.37-38.14,51.96-65.59,64.44
			c-5.08,2.33-11.37-0.14-13.95-4.69c0,0,0,0,0,0c-2.58-4.57-0.77-9.44,3.99-11.61c25.89-11.72,47.79-33.28,61.12-61.32
			c13.22-27.68,18.03-61.7,10.93-97.06c-1.33-6.56,1.25-10.36,6.43-8.11c0,0,0,0,0,0C427.43,199.66,433.08,207.48,434.14,214.44z"/>
	</g>
	<path class="st5" d="M210.5,90h-139c-4.67,0-8.5-3.82-8.5-8.5v0c0-4.67,3.82-8.5,8.5-8.5h139c4.67,0,8.5,3.82,8.5,8.5v0
		C219,86.18,215.18,90,210.5,90z"/>
	<path class="st5" d="M183.5,112h-139c-4.67,0-8.5-3.82-8.5-8.5v0c0-4.67,3.82-8.5,8.5-8.5h139c4.67,0,8.5,3.82,8.5,8.5v0
		C192,108.18,188.18,112,183.5,112z"/>
	<path class="st5" d="M199.5,377h-139c-4.67,0-8.5-3.82-8.5-8.5l0,0c0-4.68,3.82-8.5,8.5-8.5h139c4.67,0,8.5,3.82,8.5,8.5l0,0
		C208,373.18,204.18,377,199.5,377z"/>
	<path class="st5" d="M252.5,400h-139c-4.67,0-8.5-3.82-8.5-8.5l0,0c0-4.68,3.82-8.5,8.5-8.5h139c4.68,0,8.5,3.82,8.5,8.5l0,0
		C261,396.18,257.18,400,252.5,400z"/>
	<path class="st6" d="M283,421l-18-35l-25-42c0,0-12.31-4.51-27-15c-20.83-14.88-45.93-43.6-43-104c-35-82-38-88-38-88
		s-80,107,7,218l65,1c0,0,15,10,4,22c0,0.86,37.94,0.71,48.26,0.94c1.91,0.04,3.72,0.86,4.99,2.28c3.93,4.38,10.38,14.44-3.25,22.78
		c-1,1-53,1-53,1S225,421,283,421z"/>
</g>
</svg>
