<?xml version="1.0" encoding="utf-8"?>
<!-- Generator: Adobe Illustrator 23.0.0, SVG Export Plug-In . SVG Version: 6.00 Build 0)  -->
<svg version="1.1" id="Trazo" xmlns="http://www.w3.org/2000/svg" xmlns:xlink="http://www.w3.org/1999/xlink" x="0px" y="0px"
	 viewBox="0 0 500 500" style="enable-background:new 0 0 500 500;" xml:space="preserve">
<style type="text/css">
	.st0{fill:#F61625;}
	.st1{fill:none;stroke:#000000;stroke-width:7;stroke-miterlimit:10;}
	.st2{fill:none;stroke:#000000;stroke-width:8;stroke-miterlimit:10;}
</style>
<g>
	<path class="st0" d="M252.54,470.36L138.64,322.9c0,0-63.34-93.11-61.94-107.1c1.4-13.99,1.4-86.72,15.39-99.31
		s18.59-39.47,36.97-47.76C144,62,132,59,188.6,35.37c11.9-4.97,41.96-11.19,48.95-8.39c6.99,2.8,9.79,57.35,9.79,57.35L191,97
		l-21,32l-13.97,32.25l2.8,26.57L162,202c0,0,17.21,41.58,36.59,46.57s48.75,21.78,57.15,18.98
		C264.13,264.76,252.54,470.36,252.54,470.36"/>
	<path class="st0" d="M240.35,27.78l2.35,55.15l41.13,6.99l27.81,23.38c0,0,33.89,44.76,18.8,79.92
		c-15.08,35.17-30.36,56.15-50.14,63.14c-19.78,6.99-34.87,8.39-34.87,8.39l7.44,201.81l41.53-57.55l46.23-69.53l58.37-83.12
		c0,0,28.79-78.33,13.71-113.29s-28.79-69.93-58.96-85.32C323.6,42.37,264.64,25.58,252.3,26.98"/>
	<path class="st1" d="M109.52,280.78c-74.76-93.09-20.34-233.1,97.9-249.64c13-1.82,26.65-2.77,40.91-2.77
		c12.75,0,24.83,0.84,36.24,2.45C396.4,46.55,452.87,174.49,390.69,268.75L252.54,470.36L109.52,280.78z"/>
	<circle class="st2" cx="245.54" cy="172.44" r="89.52"/>
</g>
</svg>
