<?xml version="1.0" encoding="utf-8"?>
<!-- Generator: Adobe Illustrator 23.0.0, SVG Export Plug-In . SVG Version: 6.00 Build 0)  -->
<svg version="1.1" id="Trazo" xmlns="http://www.w3.org/2000/svg" xmlns:xlink="http://www.w3.org/1999/xlink" x="0px" y="0px"
	 viewBox="0 0 500 500" style="enable-background:new 0 0 500 500;" xml:space="preserve">
<style type="text/css">
	.st0{fill:#E23030;}
	.st1{fill:none;stroke:#FFFFFF;stroke-width:7;stroke-miterlimit:10;}
	.st2{opacity:0.74;fill:#CC2F2F;}
</style>
<g>
	<g>
		<path class="st0" d="M249.84,461C95.39,353.11,1.18,204.78,31.14,119.01c8.1-23.19,30.2-48.13,59.93-59.93
			c48.76-19.36,111.68,1.22,161.62,52.21c42.14-45.8,97.75-66.19,144.27-51.52c32.79,10.34,54.47,30.91,66.98,60.54
			C501.68,209.67,400.69,353.3,249.84,461z"/>
		<path class="st1" d="M59.84,273.95l133.32-2.3l25.76-86.3l26.53,101.07c0.14,0.54,0.9,0.54,1.04,0l35.54-134.56l30.86,153.02
			c0.01,0.07,0.11,0.07,0.12,0l25.69-93.77l18.03,61.83l86.3,1.29"/>
	</g>
	<path class="st2" d="M250,461c0,0,92.19-152.6,113-208c17.13-45.61,42.71-190.14,42.71-190.14S430.84,71.49,449,94
		c21.95,27.2,35,75,6,136c-10,28-16.58,36.64-30,57c-17.56,26.63-44.07,56.21-64,78C306.17,424.94,250,461,250,461z"/>
</g>
</svg>
